<?xml version="1.0" standalone="no"?>
<!DOCTYPE svg PUBLIC "-//W3C//DTD SVG 20010904//EN" "http://www.w3.org/TR/2001/REC-SVG-20010904/DTD/svg10.dtd">
<svg version="1.0" xmlns="http://www.w3.org/2000/svg" width="2001.000000pt" height="3334.000000pt"
    viewBox="0 0 2001.000000 3334.000000" preserveAspectRatio="xMidYMid meet">

    <g transform="translate(0.000000,3334.000000) scale(0.100000,-0.100000)" fill="#000000" stroke="none">
        <path d="M10970 26415 c-8 -2 -51 -9 -95 -16 -151 -23 -246 -91 -315 -225 -36
-71 -55 -88 -110 -99 -39 -8 -155 -57 -270 -113 -266 -130 -618 -511 -862
-932 -38 -67 -183 -196 -264 -238 -23 -12 -95 -39 -160 -61 -65 -22 -135 -46
-155 -55 -55 -23 -138 -93 -156 -131 -15 -31 -15 -39 -1 -87 8 -29 19 -61 23
-70 5 -13 2 -18 -10 -18 -33 0 -301 86 -309 99 -3 3 9 42 26 85 39 101 128
200 216 239 106 48 167 59 346 64 l169 5 72 44 c73 44 185 151 185 177 0 16
-29 25 -186 57 -55 11 -128 26 -164 34 -88 19 -299 46 -365 46 -81 0 -239 -35
-312 -70 -121 -56 -263 -178 -340 -290 -43 -64 -157 -289 -163 -324 -5 -30 -8
-32 -73 -60 -33 -14 -38 -20 -35 -43 4 -34 81 -95 153 -122 88 -33 292 -71
382 -71 76 0 86 2 108 25 14 13 25 29 25 34 0 27 -22 62 -45 71 -21 8 -37 40
-19 40 3 0 65 -20 137 -44 73 -24 164 -51 202 -61 49 -13 81 -28 105 -50 68
-63 136 -108 217 -146 151 -70 221 -90 333 -99 119 -9 140 -1 140 53 0 121
295 233 635 240 275 5 772 -30 1026 -72 103 -17 347 -76 357 -86 2 -2 -7 -6
-20 -10 -13 -4 -94 -38 -182 -76 -158 -70 -158 -70 -282 -79 -105 -7 -131 -12
-173 -35 -51 -28 -86 -76 -79 -110 3 -17 10 -20 53 -17 28 2 73 10 100 17 110
28 272 38 489 30 304 -11 335 -11 396 7 30 9 94 24 141 33 86 17 118 29 108
40 -4 3 -107 40 -230 81 -123 42 -231 80 -239 85 -42 24 124 -8 235 -46 58
-20 228 -96 235 -106 3 -4 23 -10 46 -13 23 -4 115 -40 205 -80 l164 -73 14
-87 c10 -59 19 -86 29 -86 7 0 77 -40 155 -88 78 -48 165 -101 192 -117 162
-92 408 -277 495 -372 70 -77 120 -156 120 -192 0 -14 12 -63 26 -110 23 -75
26 -99 22 -191 -5 -121 -18 -160 -92 -257 -54 -71 -194 -213 -290 -293 -56
-47 -73 -69 -112 -147 -25 -51 -48 -93 -51 -93 -3 0 -3 19 0 43 l5 42 -24 -49
c-69 -147 -79 -472 -26 -821 17 -115 39 -237 48 -270 9 -33 23 -82 30 -110 8
-27 14 -73 14 -102 0 -47 -5 -58 -51 -120 -157 -207 -315 -342 -580 -496 -124
-72 -493 -179 -819 -237 -267 -48 -836 -55 -975 -14 -54 17 -125 46 -125 52 0
4 66 7 148 8 129 1 163 5 277 32 72 18 164 45 205 61 232 90 284 112 370 161
114 63 129 73 250 170 52 42 106 85 120 95 184 146 353 379 500 688 98 207
147 355 194 587 31 150 26 141 85 171 74 39 96 61 138 147 21 41 48 82 60 92
12 9 82 43 155 76 172 75 222 108 317 211 91 98 165 222 182 302 14 66 6 178
-17 259 -23 77 -89 209 -113 221 -13 7 -17 18 -14 31 6 23 -29 75 -93 135 -48
46 -98 76 -450 275 -189 106 -254 148 -264 168 -7 16 -15 22 -17 15 -6 -18
-28 -16 -71 6 -47 24 -299 118 -349 130 -21 5 -67 17 -103 26 -154 39 -190 46
-289 56 -60 6 -249 9 -455 7 -342 -5 -353 -5 -441 -31 -49 -14 -110 -33 -135
-42 -84 -31 -144 -30 -280 5 -145 37 -232 38 -337 1 l-63 -21 -77 20 c-103 26
-325 42 -476 34 -273 -13 -565 -89 -637 -166 -24 -26 -26 -75 -6 -179 8 -41
19 -108 26 -149 13 -86 49 -191 93 -270 38 -69 130 -200 154 -220 131 -109
287 -149 454 -116 46 9 107 21 134 27 28 5 74 21 104 34 30 14 55 24 57 22 2
-2 -12 -32 -31 -68 -37 -69 -43 -111 -22 -170 25 -73 91 -135 179 -168 43 -16
25 8 -43 59 -97 72 -124 162 -75 245 24 39 46 76 118 200 19 33 59 94 89 136
31 42 60 89 67 105 13 34 33 166 27 173 -3 2 9 17 25 33 24 23 39 28 77 28 92
0 158 -33 167 -83 2 -12 11 -68 20 -124 31 -195 124 -363 232 -420 62 -32 279
-104 374 -122 86 -17 375 -28 480 -19 180 17 420 108 523 198 30 26 62 71 90
123 24 45 56 105 70 132 15 28 36 71 47 98 17 40 22 46 37 38 18 -10 145 -48
233 -70 224 -55 252 -58 282 -28 24 24 131 58 199 64 79 7 156 -13 245 -62 62
-35 111 -77 69 -61 -128 51 -197 70 -279 74 -88 5 -207 -10 -236 -29 -13 -8
-13 -10 0 -19 13 -9 13 -11 0 -21 -11 -8 -2 -9 35 -5 210 26 327 13 427 -47
45 -28 58 -43 91 -108 44 -87 61 -185 51 -289 -13 -131 -74 -240 -207 -374
-70 -71 -99 -91 -197 -141 -203 -103 -205 -104 -270 -253 -14 -32 -44 -72 -74
-100 l-51 -47 -3 54 c-2 30 2 90 7 135 6 45 22 167 36 271 19 141 27 253 30
435 4 155 2 237 -4 224 -5 -11 -12 -47 -16 -80 -18 -176 -37 -325 -45 -369 -5
-27 -14 -84 -21 -125 -6 -41 -16 -83 -21 -94 -9 -16 -13 -12 -33 30 -19 42
-65 106 -65 92 0 -17 63 -183 74 -193 13 -14 10 -75 -4 -75 -4 0 -18 15 -30
33 -19 28 -21 29 -16 7 8 -33 19 -240 13 -240 -3 0 -19 25 -37 56 -17 31 -52
79 -77 106 l-46 48 37 158 c20 86 43 200 51 252 7 52 18 115 24 140 22 92 41
364 25 347 -3 -3 -21 -79 -39 -169 -72 -360 -210 -839 -280 -978 -70 -138
-201 -283 -267 -295 -74 -14 -91 -6 -116 58 -19 48 -26 95 -38 272 -15 234
-40 377 -77 458 -32 69 -119 171 -173 203 -38 23 -51 25 -96 19 -71 -10 -144
-38 -263 -101 -131 -69 -185 -88 -335 -117 -280 -55 -370 -64 -480 -48 -41 6
-127 13 -190 15 -127 6 -253 34 -353 81 -104 48 -169 12 -236 -129 -46 -98
-49 -108 -62 -244 -5 -58 -14 -125 -19 -147 -4 -22 -14 -67 -20 -100 -18 -90
-39 -135 -62 -135 -10 0 -35 17 -53 38 -45 48 -45 75 1 198 37 99 82 255 110
379 10 45 17 144 20 280 4 193 3 206 -10 165 -8 -25 -24 -119 -35 -210 -28
-218 -58 -342 -136 -560 -123 -343 -187 -776 -156 -1049 18 -154 86 -347 160
-456 12 -16 21 -35 21 -42 0 -7 -39 -38 -87 -70 -49 -32 -90 -60 -93 -63 -3
-3 -50 -38 -105 -77 -177 -125 -296 -227 -481 -409 -167 -165 -374 -398 -485
-548 -53 -72 -175 -283 -218 -378 -41 -91 -97 -251 -111 -318 -7 -30 -14 -125
-17 -211 -6 -164 6 -291 34 -361 18 -45 83 -104 124 -113 33 -8 37 -25 10 -42
-33 -21 -251 -46 -396 -46 -319 0 -648 57 -924 160 -104 38 -310 139 -514 251
-262 143 -492 208 -877 247 -233 23 -344 44 -424 77 -39 17 -95 39 -125 49
-53 19 -182 113 -200 147 -9 17 -2 18 97 18 59 -1 143 5 187 11 44 7 126 17
182 23 190 20 378 75 523 153 36 19 103 52 150 73 112 51 175 91 295 189 124
102 230 212 362 376 166 208 247 338 283 454 12 39 25 79 30 90 8 19 8 19 15
1 17 -39 -62 -414 -109 -520 -35 -80 -100 -176 -196 -291 -46 -55 -85 -102
-87 -104 -2 -2 -6 -1 -10 2 -6 6 3 30 44 125 8 19 13 36 10 38 -3 3 -31 -46
-63 -108 -31 -62 -66 -128 -76 -146 -23 -41 -23 -52 0 -52 9 0 39 28 67 63
112 141 147 178 165 172 23 -7 126 103 196 211 84 128 92 161 105 414 10 203
17 262 32 257 24 -8 38 -89 47 -279 10 -225 4 -291 -37 -388 -47 -109 -76
-191 -70 -196 16 -17 157 217 183 305 26 85 30 215 9 296 -22 91 -17 107 53
146 31 18 71 42 87 54 17 12 71 36 120 52 50 17 133 47 186 66 65 24 127 39
195 46 60 7 402 12 869 14 424 2 781 7 795 12 l25 9 -30 8 c-16 4 -137 12
-270 18 -132 5 -325 15 -430 20 -303 16 -1863 11 -2650 -8 -482 -11 -1672 -8
-1855 6 -90 6 -121 5 -142 -5 -37 -18 -35 -31 5 -37 67 -10 367 -26 499 -26
75 0 139 -4 142 -9 4 -5 3 -89 -1 -186 -6 -167 -7 -177 -27 -185 -22 -9 -74
-62 -92 -95 -25 -45 -37 -129 -30 -211 7 -99 27 -164 69 -221 l30 -42 -53 -63
c-94 -111 -142 -254 -120 -354 13 -59 20 -69 84 -117 27 -20 62 -55 78 -77 55
-74 177 -169 283 -220 157 -75 314 -124 445 -140 173 -21 320 -40 385 -50 212
-33 405 -107 638 -244 130 -76 527 -276 622 -313 103 -40 254 -79 364 -94 170
-23 497 8 689 65 42 13 80 22 84 20 3 -2 -14 -34 -39 -72 -103 -153 -157 -309
-188 -550 -35 -268 -5 -518 91 -751 90 -216 268 -552 433 -816 315 -502 468
-813 527 -1070 24 -105 25 -348 1 -415 -38 -108 -49 -138 -74 -190 -14 -30
-28 -78 -31 -106 -4 -46 -2 -53 29 -85 19 -19 47 -43 62 -54 l28 -20 -35 -49
c-50 -69 -60 -106 -53 -199 5 -72 11 -92 61 -191 30 -61 58 -124 62 -139 10
-41 -15 -117 -53 -161 -26 -31 -33 -49 -33 -82 0 -36 5 -47 39 -77 l40 -36
-25 -26 c-13 -14 -26 -38 -30 -53 -3 -15 -7 -33 -10 -40 -2 -7 3 -33 12 -59
13 -37 14 -50 3 -69 -17 -32 -6 -130 26 -228 19 -61 25 -100 25 -170 0 -106
-17 -179 -67 -291 -45 -103 -53 -138 -27 -133 25 4 75 99 114 216 27 80 31
107 31 201 0 88 -5 122 -26 187 -31 99 -44 194 -25 194 8 0 41 -17 74 -39 62
-39 112 -59 199 -80 66 -15 78 -13 37 7 -20 9 -50 27 -67 40 -17 12 -34 22
-38 22 -17 0 -149 85 -180 116 -29 29 -35 42 -35 78 0 54 26 80 78 80 37 0 55
-6 166 -51 32 -13 61 -22 63 -20 2 3 -18 17 -44 32 -26 15 -59 38 -73 50 -14
12 -52 37 -85 54 -70 38 -115 78 -115 102 0 10 11 31 25 47 34 40 55 104 55
166 0 43 -9 70 -60 171 -87 174 -92 254 -19 354 16 23 35 41 43 41 8 0 49 -20
93 -44 68 -39 404 -196 418 -196 2 0 62 -27 133 -59 143 -66 250 -94 283 -72
17 10 31 8 87 -15 37 -14 69 -28 72 -31 3 -3 -57 -3 -133 -2 -137 4 -139 3
-157 -21 -18 -23 -20 -24 -81 -12 -115 21 -282 82 -432 157 -82 41 -157 75
-168 75 -11 0 -23 -10 -29 -24 -13 -34 4 -379 19 -384 6 -2 37 -23 70 -47 158
-117 429 -245 639 -304 43 -12 45 -16 42 -63 -2 -33 1 -34 170 -48 69 -6 132
-13 140 -15 8 -2 188 -14 399 -26 437 -24 456 -23 466 35 l7 33 206 6 c335 10
586 46 625 90 13 15 16 31 13 61 -3 23 -2 87 2 143 l7 102 44 -30 c25 -16 70
-37 100 -46 102 -29 287 -2 516 78 103 35 220 48 288 31 43 -11 145 -70 146
-84 1 -11 -63 -43 -246 -124 -249 -110 -342 -175 -434 -307 -39 -57 -42 -103
-10 -166 12 -22 21 -45 21 -51 0 -27 -167 68 -189 108 -5 9 -12 14 -15 11 -8
-8 39 -66 89 -111 56 -49 121 -83 218 -113 101 -31 125 -31 249 -3 95 21 99
21 153 4 35 -11 68 -30 90 -53 34 -35 45 -68 26 -75 -13 -4 -25 -58 -13 -58 5
0 17 21 25 47 13 40 14 51 2 74 -16 31 -69 77 -102 90 -13 5 -23 13 -23 18 0
25 172 151 207 151 28 0 175 -157 202 -215 37 -79 53 -192 55 -384 2 -176 8
-200 37 -165 21 26 24 263 5 391 -22 146 -56 215 -158 319 -47 49 -78 88 -72
92 17 16 118 53 194 71 83 21 164 34 315 51 175 19 226 30 289 62 117 59 193
141 270 295 l36 72 127 -2 c196 -3 271 32 283 131 l5 47 49 8 c49 8 287 112
336 147 35 25 202 107 355 175 235 104 367 192 692 456 245 200 426 377 488
477 21 34 41 62 45 62 4 0 35 -36 69 -80 71 -92 123 -126 178 -115 41 7 76 52
139 177 24 47 65 124 92 170 106 179 123 223 156 391 20 101 28 251 15 283 -5
15 -26 42 -45 60 -29 28 -33 37 -25 53 6 11 18 68 26 128 21 145 12 339 -22
483 -31 129 -40 308 -23 435 20 150 28 296 19 370 -8 75 -111 408 -155 502
-42 89 -101 172 -174 243 -60 58 -69 73 -92 145 -15 44 -36 101 -48 127 -31
70 -129 188 -201 242 l-63 47 -22 108 c-27 133 -69 242 -169 441 -124 248
-279 477 -387 575 -70 63 -217 165 -300 208 -37 19 -110 49 -162 67 -94 31
-122 49 -176 115 -63 76 -201 167 -340 225 -80 33 -243 60 -363 60 -164 0
-392 58 -524 132 -77 44 -202 171 -236 240 -40 84 -38 92 26 84 28 -4 133 -7
232 -7 347 -2 512 55 681 234 125 130 234 381 349 797 77 279 94 404 95 680 0
238 -16 532 -31 568 -5 13 -14 55 -19 93 -12 83 -62 231 -94 279 -53 79 -164
164 -283 216 -65 29 -223 70 -308 80 -33 3 -63 8 -66 10 -4 2 0 30 7 61 26
108 55 323 94 706 17 160 8 585 -14 682 -59 264 -81 337 -131 442 -155 327
-481 684 -849 929 -130 87 -347 199 -521 269 -77 31 -167 69 -200 84 -58 27
-118 47 -234 77 -58 15 -279 46 -506 69 -132 14 -553 29 -585 20z m480 -69
c244 -21 512 -64 674 -108 71 -19 78 -22 56 -31 -79 -31 -272 -130 -315 -161
-131 -95 -281 -288 -310 -399 -8 -32 -15 -60 -15 -63 0 -10 74 87 127 167 108
160 220 256 394 337 203 94 249 99 379 41 322 -144 554 -313 896 -654 187
-186 244 -249 297 -330 125 -190 170 -310 239 -630 21 -101 23 -133 23 -395
-1 -329 -32 -712 -70 -855 -7 -27 -16 -81 -19 -120 -15 -168 -65 -401 -97
-453 -16 -25 -66 -52 -98 -52 -20 0 -57 42 -78 90 -14 32 -43 121 -43 133 0
12 51 -1 71 -19 14 -13 39 -19 39 -10 0 18 -66 137 -112 202 -118 166 -597
591 -785 695 -32 18 -84 50 -116 72 -51 34 -240 129 -455 228 -147 68 -492
178 -807 258 -191 48 -543 94 -846 111 -463 26 -667 -1 -932 -124 -43 -20 -82
-36 -87 -36 -19 0 -100 -87 -100 -106 0 -40 -23 -47 -121 -41 -119 9 -177 27
-285 88 -181 104 -249 156 -295 228 -32 50 -36 79 -15 119 36 69 106 105 302
157 177 46 304 118 402 227 20 22 98 131 172 242 140 209 163 239 294 401 173
214 318 324 544 415 106 42 141 46 123 13 -18 -36 -81 -280 -91 -354 -5 -42
-6 -89 -1 -105 l8 -29 21 35 c12 19 22 51 22 70 0 35 23 144 39 190 5 14 17
52 27 85 9 33 40 107 67 165 82 173 163 258 282 298 51 18 87 21 245 21 102 0
259 -6 350 -13z m-27 -2647 c31 -7 57 -16 57 -20 0 -4 -82 -7 -182 -6 -101 1
-232 -1 -293 -5 -66 -4 -98 -3 -80 2 51 15 149 38 180 43 51 9 257 -1 318 -14z
m-1781 -51 c32 -7 58 -15 58 -18 0 -11 -338 -11 -344 -1 -17 26 186 40 286 19z
m2200 -45 c77 -38 145 -145 153 -240 2 -32 2 -49 -1 -38 -11 41 -38 92 -79
150 -55 76 -82 102 -142 130 l-48 23 45 -6 c25 -2 57 -11 72 -19z m362 -311
c-10 -41 -21 -69 -26 -64 -9 9 4 120 25 211 l12 54 3 -64 c2 -37 -4 -95 -14
-137z m-2308 -27 c-21 -49 -31 -40 -14 13 7 23 16 38 21 33 5 -5 1 -25 -7 -46z
m658 -67 c50 -150 163 -301 284 -382 58 -38 172 -91 252 -116 24 -8 24 -8 -5
-9 -107 -2 -298 76 -382 157 -92 88 -183 277 -183 380 0 56 7 50 34 -30z
m-1580 -180 c63 -75 163 -159 250 -208 70 -39 63 -48 -17 -22 -178 59 -351
252 -365 407 l-4 50 40 -80 c23 -44 66 -110 96 -147z m2049 -131 c94 -46 290
-113 377 -126 36 -6 99 -11 140 -11 l75 -1 -40 -15 c-61 -24 -221 -21 -327 4
-161 39 -266 93 -366 186 -57 53 -122 136 -122 155 0 6 42 -26 94 -71 58 -51
123 -98 169 -121z m-1873 109 c101 -67 220 -123 296 -139 l69 -14 -50 -6 c-72
-8 -135 7 -225 53 -73 38 -167 119 -194 167 -9 17 -9 17 15 0 13 -10 53 -37
89 -61z m4932 -2 c228 -48 416 -173 467 -309 25 -64 51 -174 73 -295 18 -104
18 -741 0 -865 -54 -368 -179 -774 -309 -1011 -57 -104 -146 -193 -253 -252
-40 -23 -159 -62 -235 -78 -87 -19 -497 -16 -531 4 -23 12 -38 63 -49 162 -26
238 -69 365 -116 344 -8 -3 -36 -37 -64 -77 -27 -39 -55 -72 -60 -74 -7 -2
-22 67 -39 174 -15 98 -31 201 -36 228 -14 75 -40 328 -35 334 3 2 13 -3 23
-12 30 -28 105 -57 147 -57 112 0 221 108 227 226 l3 57 42 14 c71 24 141 96
186 192 39 83 39 83 35 190 -3 90 -8 115 -32 169 l-29 63 45 42 c82 76 135
230 111 320 -13 49 -10 57 22 57 14 0 35 14 54 35 53 61 67 95 134 345 21 79
25 85 52 91 34 7 72 4 167 -17z m-2764 -1024 c65 -61 19 -212 -114 -374 -111
-133 -339 -251 -549 -285 -38 -6 -126 -20 -195 -31 -195 -31 -294 -38 -445
-30 -168 9 -226 23 -239 56 -7 19 20 80 59 134 35 49 55 99 55 138 0 19 4 23
18 17 30 -12 211 -24 372 -25 271 0 474 36 646 116 52 24 94 45 94 48 0 6 -80
-13 -135 -33 -84 -31 -395 -76 -595 -87 -132 -7 -332 8 -373 27 -18 8 -40 34
-58 68 -54 103 -67 122 -72 109 -3 -7 -6 -3 -6 10 -1 13 -5 20 -11 17 -12 -7
-12 1 -4 45 l7 32 61 -5 c34 -3 104 -13 156 -21 127 -21 549 -21 705 -1 61 8
180 22 265 30 104 10 179 23 225 39 89 30 106 31 133 6z m-1574 -103 c-7 -46
1 -64 66 -169 60 -97 57 -131 -23 -266 -36 -60 -49 -93 -50 -124 -2 -40 0 -44
38 -64 58 -31 80 -34 285 -38 183 -5 371 4 525 25 255 33 442 120 611 283 43
41 81 73 83 70 10 -9 -59 -196 -111 -304 -77 -158 -157 -254 -288 -343 -97
-66 -157 -88 -257 -94 -74 -5 -87 -3 -136 21 -74 36 -90 56 -95 121 l-4 55 98
0 c128 0 216 30 391 131 96 56 147 94 210 156 86 84 115 133 41 69 -123 -106
-431 -264 -597 -307 -94 -24 -142 -24 -183 1 -30 18 -50 20 -238 20 -161 -1
-214 -4 -245 -16 -72 -28 -92 -28 -129 0 -19 14 -37 36 -39 48 -3 18 -5 16 -6
-8 -1 -32 26 -70 64 -91 17 -10 17 -13 5 -28 -18 -22 -64 -45 -89 -45 -10 0
-38 21 -60 46 -49 56 -51 79 -21 254 25 151 29 172 51 259 11 41 22 120 25
175 7 138 12 164 35 187 34 34 49 25 43 -24z m2530 -453 c9 -26 16 -59 15 -73
0 -20 -9 -7 -37 49 -20 41 -50 98 -65 125 l-29 50 50 -52 c30 -32 56 -71 66
-99z m-120 -78 c21 -28 47 -69 57 -91 25 -56 45 -183 32 -196 -8 -8 -13 -4
-18 12 -34 118 -63 194 -101 260 -24 43 -44 81 -44 84 0 14 40 -22 74 -69z
m-2754 -293 c-25 -5 -221 -131 -274 -178 -16 -14 -31 -23 -34 -20 -7 7 65 92
101 119 63 47 158 85 207 84 l25 -1 -25 -4z m195 -242 c-40 -56 -76 -132 -130
-276 -33 -87 -38 -115 -44 -220 -6 -115 -7 -118 -19 -80 -23 73 -26 184 -8
254 21 81 95 233 144 292 29 37 68 70 89 78 2 1 -13 -21 -32 -48z m860 -361
c80 -220 218 -422 370 -543 36 -28 43 -38 25 -32 -129 40 -298 212 -380 387
-55 119 -85 261 -80 388 1 41 3 38 20 -40 10 -47 30 -119 45 -160z m728 -66
c178 -126 289 -173 409 -175 62 -1 62 -1 23 -11 -81 -19 -101 -19 -169 -4 -95
22 -211 75 -293 132 -85 60 -290 266 -321 323 -22 40 -14 34 109 -73 73 -64
182 -151 242 -192z m1971 223 c2 -18 12 -99 21 -182 20 -178 54 -319 106 -436
22 -48 39 -93 39 -101 0 -7 -14 -22 -31 -32 -20 -12 -29 -14 -24 -5 12 19
-100 -46 -165 -96 -68 -52 -288 -198 -429 -286 -123 -75 -727 -471 -786 -515
-22 -16 -112 -85 -199 -154 -272 -215 -265 -210 -293 -199 -39 15 -249 195
-295 253 -23 28 -84 116 -137 196 -188 286 -242 353 -379 473 -24 21 -41 41
-38 44 3 4 38 -2 78 -11 40 -10 142 -25 225 -33 133 -14 177 -15 340 -4 104 7
226 19 273 27 530 85 744 153 965 302 299 203 399 307 597 624 61 98 115 175
119 172 5 -2 10 -19 13 -37z m-2302 -293 c62 -61 151 -137 197 -169 92 -64 94
-81 5 -41 -171 78 -344 247 -419 408 -44 94 -28 95 39 2 35 -49 115 -139 178
-200z m-1515 -200 c42 -36 105 -79 139 -95 44 -20 64 -36 64 -48 0 -9 -9 -58
-19 -107 -33 -157 -43 -235 -50 -392 -5 -120 -9 -155 -21 -162 -10 -7 -11 -10
-2 -10 8 0 12 -20 13 -62 0 -83 17 -132 47 -136 35 -5 150 71 432 287 58 45
110 81 116 81 7 0 13 -57 17 -172 3 -104 11 -189 19 -213 l13 -40 115 -8 c144
-9 194 -20 298 -64 l82 -35 95 72 c52 40 100 79 106 86 20 24 33 15 79 -53
127 -189 248 -327 370 -426 41 -33 75 -64 75 -69 0 -5 -89 -58 -199 -118 -140
-76 -244 -124 -355 -165 -86 -31 -178 -66 -206 -77 -170 -70 -371 -100 -526
-80 -185 25 -415 119 -524 216 -64 56 -161 201 -191 284 -23 65 -17 194 16
332 16 69 30 132 30 141 0 8 11 43 24 77 13 34 28 76 31 94 7 29 6 31 -8 20
-9 -8 -24 -30 -35 -50 -11 -20 -40 -77 -66 -125 -69 -131 -96 -247 -96 -406 1
-195 24 -273 120 -403 86 -117 223 -197 425 -249 199 -51 331 -51 730 3 93 12
213 43 270 69 22 10 90 38 152 62 110 44 471 242 588 322 65 45 163 114 464
325 223 156 638 457 696 504 114 92 355 270 470 347 109 72 242 149 259 149 2
0 23 -16 47 -36 59 -49 134 -85 265 -127 128 -42 205 -52 478 -67 l198 -10 85
-40 c46 -21 112 -56 146 -77 59 -36 147 -109 147 -122 0 -3 -73 -6 -163 -6
-170 -1 -230 -10 -407 -62 -98 -29 -354 -135 -484 -200 -125 -63 -355 -209
-456 -290 -191 -153 -451 -411 -593 -588 -210 -262 -350 -491 -430 -700 -19
-49 -54 -139 -77 -199 -50 -132 -95 -298 -115 -432 -59 -395 70 -876 351
-1304 73 -112 192 -231 258 -260 158 -67 263 -44 641 141 l230 112 86 87 86
87 47 -64 c25 -35 46 -67 46 -72 0 -4 -73 -44 -162 -88 -175 -87 -291 -170
-363 -260 -234 -290 -499 -525 -695 -619 -179 -85 -205 -99 -208 -116 -5 -27
20 -22 148 26 89 34 117 41 123 31 13 -24 -11 -145 -42 -212 l-31 -66 -123 6
c-67 3 -176 13 -242 21 -334 43 -493 11 -735 -148 -247 -162 -491 -347 -567
-429 -35 -38 -43 -54 -43 -85 0 -45 39 -112 94 -160 38 -33 145 -92 168 -92 7
0 20 -5 28 -10 12 -8 9 -16 -21 -47 -44 -46 -60 -75 -61 -111 -1 -40 34 -101
87 -151 l47 -44 -24 -24 c-37 -37 -147 -73 -221 -73 -316 0 -558 110 -718 324
-16 21 -29 34 -29 27 0 -21 31 -74 77 -134 41 -52 44 -60 30 -74 -38 -38 -286
-71 -407 -54 -157 22 -221 54 -310 156 -66 76 -76 97 -139 285 -55 162 -141
354 -149 332 -2 -7 7 -50 21 -95 14 -45 31 -120 37 -167 15 -103 53 -273 82
-358 11 -34 18 -65 15 -68 -3 -4 -104 42 -224 101 -120 59 -240 116 -268 126
-27 11 -59 24 -70 29 -11 5 -59 27 -106 48 -48 22 -113 57 -145 79 -33 22 -78
50 -101 62 -24 12 -43 25 -43 30 0 9 44 114 96 231 48 107 59 216 39 392 -21
192 -63 332 -169 566 -84 186 -197 390 -311 562 -96 146 -131 206 -303 525
-38 72 -97 180 -130 240 -223 410 -250 831 -76 1215 19 41 39 82 44 90 5 8 29
53 52 98 58 115 100 144 211 149 55 2 92 9 125 25 l47 22 -85 6 c-90 7 -190
37 -251 76 -71 44 -99 109 -99 231 0 154 92 519 170 673 84 165 356 551 522
740 114 130 382 371 665 598 73 58 206 152 216 152 5 0 43 -30 84 -66z m-5012
-81 c-1 -32 0 -48 2 -35 3 12 9 22 14 22 5 0 9 11 9 23 0 58 -53 55 1019 53
762 -1 985 -4 989 -14 2 -7 -3 -12 -11 -12 -18 0 -79 -54 -293 -261 l-162
-157 -178 -90 c-190 -95 -383 -173 -474 -191 -177 -34 -224 -41 -286 -41 -103
0 -200 32 -379 123 -131 68 -171 94 -228 148 l-69 66 7 209 c6 196 12 233 35
219 4 -2 6 -30 5 -62z m2605 57 c0 -10 -99 -59 -174 -86 -21 -8 -64 -30 -96
-49 -32 -19 -63 -35 -69 -35 -6 0 -18 14 -27 31 -9 17 -31 47 -50 66 -53 52
-44 67 46 74 135 10 370 10 370 -1z m2764 -168 c44 -22 108 -49 141 -62 33
-13 105 -42 160 -65 55 -23 122 -48 149 -54 63 -15 126 -48 126 -65 0 -8 -15
-16 -35 -19 -32 -5 -72 -31 -329 -212 -39 -28 -115 -86 -170 -130 -113 -92
-198 -147 -209 -136 -4 4 -3 57 3 117 18 188 29 324 40 489 6 87 14 163 16
167 9 14 24 9 108 -30z m-5456 -325 c47 -81 127 -164 229 -236 135 -97 275
-151 446 -172 213 -26 415 29 707 192 119 66 299 149 294 135 -7 -18 -116
-114 -217 -189 -194 -147 -486 -254 -779 -285 -96 -11 -342 2 -398 19 -83 27
-216 105 -279 164 -72 68 -75 80 -87 257 -5 69 -3 95 11 132 10 26 23 45 29
43 6 -2 25 -29 44 -60z m1833 -125 c-19 -35 -183 -218 -274 -305 -183 -175
-411 -325 -664 -436 -90 -39 -247 -77 -377 -91 -55 -6 -131 -15 -169 -20 -94
-14 -252 -12 -310 3 -96 25 -166 133 -154 236 8 70 73 205 112 233 5 4 30 -8
55 -26 72 -53 212 -104 327 -121 91 -13 121 -13 260 0 511 47 776 161 1131
487 66 61 79 69 63 40z m8785 -247 c155 -45 269 -107 427 -233 116 -92 437
-541 557 -779 50 -101 125 -301 116 -310 -3 -3 -25 0 -50 6 -54 13 -136 15
-136 2 0 -5 -3 -16 -6 -24 -4 -11 7 -18 48 -26 119 -25 150 -36 215 -81 78
-53 140 -126 213 -248 46 -78 57 -102 46 -102 -2 0 -38 16 -80 36 -88 42 -219
65 -258 46 -21 -10 -21 -11 13 -11 51 -1 159 -36 159 -52 0 -5 -10 -9 -22 -9
-13 -1 14 -16 59 -34 45 -18 103 -50 128 -71 64 -52 140 -146 176 -217 43 -84
101 -267 140 -435 l33 -143 -12 -172 c-23 -324 -12 -448 58 -658 31 -93 32
-99 32 -281 0 -189 -12 -276 -35 -263 -7 4 -48 33 -92 64 -156 111 -280 191
-305 196 -14 4 -95 28 -180 54 -142 45 -240 68 -360 85 -25 3 -88 13 -140 21
-316 49 -444 54 -680 29 -211 -22 -475 -83 -635 -146 -44 -17 -103 -36 -132
-42 -52 -10 -52 -10 -134 39 -96 58 -178 142 -256 263 -31 47 -65 98 -75 113
-28 42 -97 194 -124 274 -41 124 -41 324 0 459 29 92 156 287 222 339 115 93
205 152 308 205 60 31 103 57 95 59 -14 2 -59 -12 -246 -78 -81 -29 -250 -153
-323 -237 -18 -21 -39 -41 -45 -45 -16 -10 -48 94 -69 227 -9 55 -22 127 -29
160 -7 36 -12 138 -11 255 0 185 2 199 28 280 15 47 46 119 68 160 48 90 157
236 227 305 59 57 65 73 19 49 -49 -25 -183 -158 -250 -249 -90 -120 -132
-211 -158 -340 -17 -84 -18 -335 -2 -415 8 -36 18 -87 24 -115 5 -27 19 -88
29 -133 22 -92 21 -119 -1 -75 -8 15 -27 48 -42 72 -25 39 -77 187 -140 391
l-23 75 -3 -43 c-7 -97 73 -360 166 -541 34 -68 61 -130 58 -136 -8 -22 -217
-102 -353 -136 -73 -18 -133 -37 -133 -41 0 -30 299 24 410 75 110 50 110 50
85 -43 -23 -84 -20 -304 5 -408 23 -94 82 -240 146 -358 51 -95 51 -93 -48
-172 -70 -55 -107 -75 -223 -121 -44 -18 -141 -64 -215 -103 -160 -83 -228
-107 -332 -115 -73 -5 -82 -4 -142 26 -72 35 -139 102 -216 216 -134 198 -267
545 -316 820 -19 107 -19 386 0 485 49 252 167 584 290 814 121 225 597 775
851 982 115 94 376 266 518 342 89 47 307 131 417 161 127 34 356 68 536 80
12 0 62 -10 110 -24z m444 -3665 c47 -5 128 -15 180 -21 263 -31 564 -95 700
-149 70 -27 176 -86 216 -119 17 -14 98 -74 181 -133 91 -66 154 -118 162
-135 22 -49 -10 -259 -52 -341 -8 -15 -48 -92 -89 -172 -124 -239 -187 -353
-203 -369 -18 -18 -15 -22 -119 144 -203 322 -361 497 -631 702 -221 167 -555
272 -919 289 -181 9 -419 -28 -468 -73 -24 -22 -45 -10 -76 43 -31 53 -27 120
8 146 58 43 315 121 545 165 149 28 424 40 565 23z m-1449 -36 c37 -39 138
-113 194 -141 60 -31 65 -37 65 -88 1 -48 27 -109 65 -149 l27 -30 -35 -65
c-19 -36 -52 -109 -72 -161 -62 -156 -219 -507 -281 -625 -31 -60 -78 -136
-102 -168 l-45 -58 -71 7 c-73 6 -150 -4 -236 -33 -31 -10 -63 -33 -102 -74
-32 -32 -60 -59 -64 -59 -15 0 -123 89 -227 188 -60 57 -124 113 -141 126 -30
21 -102 52 -178 76 -42 13 -44 17 -24 45 25 38 49 130 55 213 l6 84 75 40 c40
22 94 54 119 71 61 42 240 228 339 352 131 164 247 269 397 356 72 42 146 86
165 97 45 26 42 26 71 -4z m1035 -339 c267 -36 483 -121 699 -276 223 -159
309 -241 360 -339 13 -25 55 -90 94 -144 80 -111 89 -133 70 -178 -39 -94
-291 -347 -482 -483 -62 -44 -168 -124 -237 -178 -169 -135 -244 -184 -390
-255 -69 -33 -152 -76 -185 -95 -149 -83 -349 -188 -442 -231 -108 -50 -185
-65 -189 -36 -2 8 -5 36 -9 61 l-6 46 -57 -20 c-73 -25 -135 -18 -221 24 -81
40 -125 86 -179 187 -37 70 -43 92 -54 185 -13 126 -3 205 38 297 22 48 35 65
65 81 l38 19 -42 61 c-23 33 -46 66 -51 73 -7 10 4 29 37 67 59 68 185 312
305 594 49 116 97 233 107 260 25 68 82 175 108 203 34 37 117 71 197 80 118
15 306 13 426 -3z m-2651 -920 c77 -8 162 -15 188 -15 27 0 69 -6 95 -14 26
-7 72 -18 104 -24 105 -20 195 -70 283 -161 96 -98 224 -197 317 -245 79 -41
120 -70 204 -149 l62 -58 12 65 c7 36 18 73 26 83 13 16 14 15 7 -12 -20 -76
-10 -126 45 -233 42 -82 60 -133 87 -245 18 -78 38 -160 44 -183 26 -96 118
-185 230 -221 64 -20 50 -31 -17 -13 -72 19 -113 40 -162 80 l-46 38 1 -127 0
-126 -36 -63 c-65 -114 -126 -179 -206 -219 -46 -23 -92 -38 -125 -40 -29 -3
-73 -12 -98 -20 -25 -8 -116 -19 -203 -24 -87 -6 -177 -17 -200 -25 -23 -8
-115 -54 -204 -101 -159 -84 -266 -163 -282 -206 -7 -18 -20 -20 -157 -24
-182 -5 -202 -2 -231 40 -34 49 -73 130 -73 152 0 26 77 133 123 171 49 40 97
67 97 55 0 -6 -10 -15 -21 -22 -43 -23 -109 -92 -109 -113 0 -64 130 -236 178
-236 42 0 117 49 141 90 11 21 21 44 21 52 0 15 -129 196 -164 231 -11 11 -15
22 -10 27 5 5 74 38 154 73 228 102 450 216 450 232 0 20 -34 19 -86 -1 -40
-15 -43 -15 -85 7 -24 12 -57 32 -74 45 -99 74 -307 58 -603 -47 -72 -26 -104
-31 -182 -33 -131 -2 -208 33 -244 109 -24 50 -14 165 15 165 13 0 20 -10 24
-37 17 -103 63 -183 103 -183 20 1 119 25 145 35 22 9 21 13 -12 179 -12 60
-19 112 -14 116 14 13 215 97 273 114 72 22 226 43 375 51 66 4 131 12 145 17
25 9 25 10 5 25 -17 12 -42 14 -155 8 -343 -16 -355 -19 -639 -157 -203 -99
-330 -148 -383 -148 -57 0 -149 59 -215 139 -55 68 -63 94 -38 127 15 19 16
19 28 0 31 -49 131 -167 149 -177 41 -22 209 27 224 66 8 19 -22 91 -90 215
-28 52 -52 98 -54 102 -5 10 96 73 243 150 254 135 237 129 435 140 184 9 254
21 247 41 -5 17 -86 19 -283 9 l-169 -9 -115 -48 c-146 -60 -338 -171 -438
-252 -69 -56 -82 -63 -122 -63 -60 0 -137 37 -200 96 -28 26 -48 49 -46 52 3
2 39 -18 80 -46 88 -59 106 -66 151 -58 48 9 135 95 135 132 0 43 -51 124
-114 182 -31 28 -56 54 -55 59 0 11 122 114 194 164 59 41 136 90 248 156 59
35 170 78 242 93 66 13 280 11 430 -5z m1196 -334 c-12 -8 -12 -12 -2 -25 10
-12 10 -20 3 -29 -6 -7 -12 -39 -14 -72 -3 -61 -22 -84 -36 -45 -19 50 19 180
52 180 6 0 5 -4 -3 -9z m-2272 -186 c23 -26 52 -66 62 -90 l20 -44 -38 -36
c-53 -49 -73 -52 -128 -20 -56 34 -155 122 -155 140 0 7 8 19 19 26 10 8 42
33 70 56 50 41 54 42 80 29 15 -8 46 -35 70 -61z m215 -386 c65 -118 91 -178
80 -189 -17 -17 -118 -38 -139 -28 -11 5 -44 39 -72 76 -71 90 -70 107 8 172
34 28 66 49 72 47 6 -2 29 -37 51 -78z m338 -399 c26 -127 26 -127 -27 -134
-25 -4 -48 -8 -52 -8 -26 -3 -72 148 -54 179 10 18 80 52 101 50 10 -2 20 -28
32 -87z m-1311 33 c16 -10 28 -22 26 -28 -2 -6 -50 -11 -118 -12 -122 -3 -123
0 -14 38 65 22 71 22 106 2z m-496 -84 l130 -12 110 -107 c110 -107 239 -220
252 -220 3 0 3 3 0 7 -4 3 -2 12 4 19 9 11 -18 43 -120 145 -72 72 -131 134
-131 137 0 4 80 7 178 6 l177 -1 0 -154 c0 -85 4 -210 9 -277 7 -99 6 -126 -4
-132 -7 -4 -54 -6 -104 -4 -50 2 -206 8 -346 14 -140 6 -327 19 -414 30 -88
11 -163 20 -168 20 -4 0 -8 28 -8 63 0 34 -9 121 -19 192 -28 194 -34 251 -26
276 7 22 8 22 179 16 94 -3 230 -11 301 -18z m2282 -616 c71 -86 85 -112 79
-139 -7 -26 -59 -64 -88 -64 -28 0 -78 50 -108 110 -24 47 -27 61 -17 74 14
18 77 66 88 66 4 0 25 -21 46 -47z m-29 -340 c-10 -2 -28 -2 -40 0 -13 2 -5 4
17 4 22 1 32 -1 23 -4z" />
        <path d="M9700 24699 c-58 -11 -130 -24 -160 -29 -78 -14 -325 -96 -383 -128
-26 -14 -68 -45 -92 -69 -37 -35 -45 -50 -45 -79 0 -48 13 -70 73 -126 72 -67
154 -108 208 -106 36 1 38 2 12 5 -17 2 -60 21 -95 42 -132 79 -166 197 -78
269 36 29 163 82 265 110 219 61 326 72 686 72 499 -1 637 -13 975 -91 274
-62 706 -220 984 -358 340 -170 406 -210 650 -399 210 -163 363 -296 488 -426
51 -53 96 -96 100 -96 4 0 2 4 -3 8 -6 4 -29 33 -52 64 -128 171 -567 555
-808 706 -137 86 -434 232 -590 291 -373 142 -707 245 -970 299 -225 47 -427
62 -820 61 -192 -1 -261 -4 -345 -20z m-653 -336 c-3 -10 -5 -4 -5 12 0 17 2
24 5 18 2 -7 2 -21 0 -30z" />
        <path d="M13711 24695 c-1 -16 3 -46 9 -65 15 -55 38 -231 51 -396 17 -215
-11 -539 -56 -647 -36 -87 -81 -86 -239 2 -60 34 -110 60 -112 58 -4 -4 171
-121 213 -141 36 -18 85 -21 113 -6 96 51 156 522 107 848 -22 147 -43 247
-67 319 -15 47 -19 52 -19 28z" />
        <path d="M13490 21170 c74 -14 441 -24 505 -14 l60 8 -100 7 c-144 10 -521 8
-465 -1z" />
        <path d="M9692 21195 c0 -16 2 -22 5 -12 2 9 2 23 0 30 -3 6 -5 -1 -5 -18z" />
        <path d="M10089 18973 c-66 -60 -262 -282 -306 -348 -50 -74 -145 -290 -141
-318 2 -15 19 -27 61 -44 178 -71 393 -109 560 -99 153 10 157 12 157 83 1 89
87 448 140 582 11 30 19 60 16 67 -2 6 -24 17 -48 22 -24 6 -74 19 -113 30
-38 11 -110 28 -160 37 -49 9 -98 18 -107 21 -10 3 -33 -10 -59 -33z" />
        <path d="M12134 17491 c-27 -21 -73 -69 -102 -105 -143 -176 -350 -327 -532
-385 -136 -45 -239 -55 -412 -42 -161 12 -275 36 -413 87 -181 67 -234 88
-298 120 -94 48 -107 37 -22 -18 135 -87 392 -202 530 -237 222 -55 451 -54
619 3 74 25 196 90 266 142 80 59 211 192 271 275 24 34 70 93 102 131 32 37
54 68 49 68 -5 0 -31 -18 -58 -39z" />
        <path d="M10338 17014 c22 -39 141 -143 240 -207 141 -93 243 -144 337 -166
181 -44 303 -71 345 -76 63 -9 -99 47 -247 85 -61 16 -143 42 -182 59 -97 41
-346 191 -401 241 -25 23 -58 51 -74 62 -26 19 -28 20 -18 2z" />
        <path d="M10480 16615 c0 -4 29 -36 65 -71 69 -66 158 -125 369 -243 276 -155
439 -263 521 -346 51 -50 75 -93 138 -240 31 -74 42 -110 81 -270 l15 -60 0
48 c2 129 -96 418 -178 526 -58 77 -267 218 -526 355 -236 125 -298 162 -361
212 -111 86 -124 96 -124 89z" />
        <path d="M11260 15134 c0 -22 72 -165 123 -244 43 -68 137 -187 137 -174 0 4
-26 48 -59 98 -61 95 -101 168 -101 185 0 6 37 -15 83 -46 187 -128 343 -179
567 -188 l125 -4 -90 15 c-195 32 -287 54 -358 87 -125 58 -278 158 -344 224
-63 64 -83 75 -83 47z" />
        <path d="M14205 18924 c-11 -2 -45 -9 -75 -15 -140 -27 -356 -118 -462 -196
-111 -81 -271 -294 -328 -436 -51 -128 -70 -218 -69 -331 1 -145 13 -163 28
-41 7 55 19 118 26 140 39 115 78 213 106 268 69 138 203 309 288 371 196 140
452 207 711 186 295 -24 501 -119 728 -335 85 -80 129 -141 163 -228 27 -68
28 -69 22 -27 -14 104 -91 221 -221 339 -104 94 -173 141 -297 201 -149 72
-277 102 -455 106 -80 2 -154 1 -165 -2z" />
        <path d="M15595 17754 c57 -74 53 -79 -101 -128 -124 -40 -99 -51 33 -15 110
29 127 42 120 87 -4 21 -20 49 -39 69 -46 48 -54 41 -13 -13z" />
        <path d="M15505 17329 c221 -119 397 -312 459 -504 42 -132 47 -173 31 -267
-42 -239 -68 -289 -235 -462 -132 -136 -202 -190 -307 -238 -105 -47 -144 -51
-493 -52 -284 -1 -334 -4 -395 -20 -38 -10 -74 -23 -80 -29 -7 -6 -2 -8 15 -4
91 23 255 29 467 17 254 -15 361 -10 453 21 142 47 225 105 387 273 96 99 129
140 157 198 47 96 80 246 80 368 1 105 -18 178 -80 302 -77 154 -255 321 -421
394 -67 30 -92 31 -38 3z" />
        <path d="M14438 15743 c6 -2 18 -2 25 0 6 3 1 5 -13 5 -14 0 -19 -2 -12 -5z" />
        <path d="M15100 14996 c0 -2 9 -6 20 -9 11 -3 18 -1 14 4 -5 9 -34 13 -34 5z" />
        <path d="M15012 14736 c15 -8 38 -22 50 -30 25 -18 42 -21 33 -6 -8 13 -80 50
-97 50 -7 0 -1 -7 14 -14z" />
        <path d="M15370 14737 c14 -8 35 -19 48 -26 13 -7 22 -8 22 -2 0 13 -53 41
-77 41 -14 0 -12 -3 7 -13z" />
        <path d="M15485 14493 c11 -3 24 -10 28 -17 6 -7 7 -6 4 4 -2 8 -14 16 -28 17
-19 1 -20 1 -4 -4z" />
        <path d="M14520 14420 c58 -39 75 -39 24 0 -21 16 -46 30 -54 30 -8 0 5 -14
30 -30z" />
        <path d="M14460 14252 c0 -5 7 -15 16 -23 8 -7 22 -25 30 -41 11 -21 22 -28
42 -27 21 0 23 2 9 7 -9 4 -26 22 -37 39 -19 32 -60 62 -60 45z" />
        <path d="M14725 14220 c11 -5 29 -9 40 -9 l20 0 -20 9 c-11 5 -29 9 -40 9
l-20 0 20 -9z" />
        <path d="M14450 14120 c8 -5 20 -10 25 -10 6 0 3 5 -5 10 -8 5 -19 10 -25 10
-5 0 -3 -5 5 -10z" />
        <path d="M15305 13879 c-165 -135 -297 -235 -398 -304 -85 -58 -92 -74 -12
-30 88 49 184 111 256 167 81 62 319 277 319 289 0 5 -1 9 -2 9 -2 -1 -75 -60
-163 -131z" />
        <path d="M14435 13940 c28 -4 78 -17 112 -29 73 -24 85 -26 58 -8 -36 25 -118
47 -169 46 l-51 -1 50 -8z" />
        <path d="M13799 13807 c-28 -18 -39 -37 -61 -102 -32 -93 -35 -162 -12 -273
17 -86 72 -190 129 -245 43 -42 134 -87 175 -87 70 0 114 34 174 134 34 57 36
64 36 150 0 50 -6 111 -14 136 -63 208 -303 370 -427 287z m205 -107 c45 -17
108 -84 138 -145 49 -105 33 -218 -39 -275 -63 -49 -192 13 -239 114 -29 63
-33 183 -8 246 24 61 84 85 148 60z" />
        <path d="M14398 13793 c7 -3 16 -2 19 1 4 3 -2 6 -13 5 -11 0 -14 -3 -6 -6z" />
        <path d="M9567 12738 c84 -110 333 -352 333 -324 0 27 -344 386 -370 386 -6 0
10 -28 37 -62z" />
        <path d="M9943 12774 c41 -79 235 -289 331 -356 l31 -23 -15 22 c-8 13 -30 43
-48 68 -18 25 -31 45 -28 45 2 0 38 -31 78 -70 106 -102 113 -96 24 20 -86
113 -298 320 -327 320 -10 0 44 -74 81 -110 29 -29 53 -60 46 -60 -4 0 -28 22
-54 48 -26 27 -67 66 -91 88 -44 39 -44 39 -28 8z" />
        <path d="M5559 25678 c-110 -39 -222 -136 -335 -289 -53 -73 -68 -119 -40
-119 8 0 25 14 38 30 70 92 166 200 211 239 72 61 127 84 218 89 126 7 161
-26 193 -183 9 -44 21 -102 27 -129 6 -26 8 -50 5 -53 -3 -3 -27 0 -55 7 -77
18 -154 5 -197 -35 -20 -19 -34 -42 -34 -56 0 -47 33 -140 57 -158 29 -24 122
-35 186 -23 69 14 91 -6 89 -79 0 -29 -6 -55 -12 -57 -6 -2 -23 -15 -36 -27
-37 -34 -122 -43 -175 -19 -108 48 -191 209 -221 429 -10 68 -17 90 -28 90
-12 0 -16 -17 -18 -77 -2 -43 -7 -78 -11 -78 -5 0 -141 33 -302 74 -162 41
-397 95 -524 120 -126 26 -283 58 -349 73 l-118 26 -80 -79 c-70 -70 -198
-221 -206 -244 -2 -4 21 -16 50 -25 439 -144 761 -653 862 -1360 21 -145 36
-429 30 -552 -9 -184 -24 -358 -40 -458 -29 -188 -29 -171 -3 -179 34 -9 453
-20 474 -12 17 6 17 7 0 26 -14 15 -31 20 -71 20 -29 0 -54 5 -56 11 -2 6 2
49 9 96 35 239 50 637 33 863 -44 579 -190 1040 -444 1400 -68 97 -246 278
-324 330 -28 19 -52 38 -52 43 0 27 257 -22 775 -149 77 -19 163 -39 190 -44
28 -6 76 -16 109 -23 l58 -13 22 -70 c28 -86 48 -125 99 -191 50 -63 99 -92
179 -103 89 -13 143 -3 179 32 l29 30 61 -46 c65 -49 95 -60 204 -77 73 -11
141 -1 228 36 41 17 49 29 66 98 10 40 8 68 -8 170 -11 67 -30 156 -41 197
-34 125 -34 124 -8 164 32 51 89 76 170 76 70 0 112 -20 163 -78 23 -25 110
-180 103 -183 -2 -1 -33 -2 -69 -3 -90 -2 -133 -26 -157 -86 -19 -51 -22 -164
-4 -182 7 -7 12 -22 12 -34 0 -21 4 -21 103 -20 112 1 212 -23 221 -53 27 -92
13 -153 -49 -210 -40 -37 -50 -41 -96 -41 -106 0 -224 49 -313 131 -44 40 -60
49 -69 40 -22 -22 14 -63 88 -103 142 -76 192 -98 249 -109 79 -14 148 3 202
52 20 19 22 19 45 1 13 -10 71 -41 129 -70 91 -45 116 -52 185 -58 139 -11
225 32 225 111 0 41 -3 41 91 15 25 -8 54 -10 64 -6 29 11 1 31 -85 65 l-75
28 -18 54 c-28 86 -126 317 -174 412 -76 147 -159 213 -282 224 -42 4 -71 0
-116 -17 -101 -36 -98 -36 -124 11 -34 60 -88 117 -135 142 -86 46 -252 19
-306 -50 l-19 -24 -37 55 c-89 134 -262 174 -418 97 -35 -17 -66 -31 -68 -31
-3 0 -13 21 -23 48 -22 59 -30 69 -79 100 -58 36 -141 40 -227 10z m636 -149
c62 -17 102 -54 139 -127 33 -67 64 -167 54 -177 -3 -3 -21 2 -42 10 -29 12
-48 13 -94 6 -78 -13 -95 -21 -127 -59 -26 -32 -27 -37 -21 -104 7 -77 28
-133 54 -143 9 -3 82 -9 161 -12 l143 -6 -5 -38 c-7 -53 -40 -96 -80 -104 -17
-4 -51 -14 -74 -22 -86 -31 -200 3 -295 90 l-48 43 0 154 c0 130 -4 172 -25
260 -14 58 -28 117 -31 132 -5 23 -1 30 37 54 81 51 170 66 254 43z m998 -264
c56 -26 103 -81 152 -175 25 -49 45 -91 45 -94 0 -3 -17 -6 -39 -6 -48 0 -141
-47 -159 -80 -8 -16 -12 -51 -9 -94 3 -63 5 -71 34 -95 56 -47 124 -65 218
-57 l83 6 11 -33 c22 -72 18 -98 -22 -121 -64 -37 -123 -47 -194 -30 -106 24
-169 52 -216 97 l-45 42 5 65 c7 87 -25 238 -84 403 -44 124 -45 128 -28 147
43 48 173 61 248 25z m-1377 -46 c59 -15 84 -48 84 -109 l0 -47 -61 -7 c-34
-3 -84 -6 -111 -6 -46 0 -50 2 -62 33 -8 17 -16 55 -18 83 l-5 52 45 0 c25 1
47 4 50 7 8 8 29 6 78 -6z m556 -59 c40 -33 72 -109 66 -157 -3 -26 -6 -28
-58 -31 -30 -2 -88 -1 -128 3 -84 8 -86 11 -95 102 l-7 62 43 25 c62 38 130
36 179 -4z m534 -73 c25 -29 64 -142 64 -184 0 -18 -4 -23 -17 -19 -77 22
-117 27 -181 24 l-74 -3 -3 49 c-4 59 16 132 42 152 13 10 37 14 82 11 55 -3
67 -7 87 -30z m507 -169 c23 -21 93 -185 83 -195 -2 -2 -35 -7 -73 -10 -58 -5
-77 -2 -123 18 -30 12 -58 28 -62 33 -4 6 -8 34 -8 62 0 40 5 55 23 72 49 46
122 55 160 20z" />
        <path d="M4050 25509 c-38 -18 -54 -20 -105 -12 -105 14 -301 6 -405 -17 -439
-98 -854 -460 -1165 -1018 -145 -260 -230 -487 -345 -919 -6 -24 -15 -43 -20
-43 -6 0 -27 16 -48 35 -35 31 -41 33 -58 21 -16 -12 -16 -18 -6 -40 6 -14 30
-46 52 -70 46 -49 47 -59 21 -135 -11 -31 -29 -99 -40 -153 -117 -550 -108
-1185 23 -1679 166 -622 486 -1044 913 -1205 68 -26 192 -54 236 -54 18 0 42
-13 70 -38 55 -49 91 -72 117 -72 31 0 24 24 -29 98 -65 91 -116 184 -177 326
l-51 119 -74 19 c-403 102 -723 528 -853 1138 -48 222 -59 346 -60 630 0 310
17 471 81 754 l27 119 -25 19 c-35 29 -127 116 -134 129 -4 6 30 -12 75 -40
45 -28 87 -51 94 -51 7 0 17 12 23 28 11 26 11 26 12 -15 1 -41 2 -42 76 -83
73 -40 95 -43 95 -16 0 8 7 27 16 42 15 28 15 28 9 -29 l-6 -57 126 -60 c70
-33 139 -63 154 -67 14 -3 28 -9 31 -13 3 -4 50 -23 105 -43 156 -54 164 -57
170 -47 3 6 15 61 25 124 11 62 28 151 38 197 66 288 83 371 78 376 -9 10
-114 -76 -165 -136 -68 -79 -135 -185 -194 -309 -58 -122 -73 -117 -32 11 74
233 228 448 378 527 54 28 43 5 146 310 38 113 78 229 90 258 12 29 21 57 21
62 0 16 -60 11 -128 -9 -293 -89 -567 -409 -762 -891 -63 -155 -79 -158 -41
-8 78 306 228 577 425 773 158 156 280 224 457 254 l96 16 75 145 c41 80 99
183 128 228 61 96 59 103 -29 95 -410 -36 -818 -396 -1116 -988 -72 -143 -112
-237 -227 -535 -74 -193 -28 58 58 319 129 387 334 732 576 967 143 141 218
196 365 269 133 66 261 96 403 97 l115 0 101 107 c56 58 140 137 188 175 59
48 82 72 74 78 -17 10 -17 11 -68 -13z m-805 -5320 c11 -17 -1 -21 -15 -4 -8
9 -8 15 -2 15 6 0 14 -5 17 -11z" />
        <path d="M3701 24928 c-69 -120 -183 -356 -179 -369 2 -5 39 -22 83 -37 305
-106 542 -446 640 -919 47 -226 59 -569 29 -820 -9 -74 -15 -136 -13 -138 9
-8 277 -48 291 -43 15 6 29 81 60 308 17 131 17 642 0 780 -18 133 -65 360
-98 468 -35 118 -113 296 -170 393 -144 246 -361 428 -555 464 l-34 6 -54 -93z" />
        <path d="M5678 24463 c6 -2 18 -2 25 0 6 3 1 5 -13 5 -14 0 -19 -2 -12 -5z" />
        <path d="M5735 24452 c19 -19 457 -114 1200 -263 146 -29 577 -111 790 -149
28 -5 151 -27 275 -50 339 -61 677 -120 778 -134 50 -7 50 8 0 17 -18 4 -62
13 -98 22 -36 8 -85 19 -110 24 -361 77 -442 93 -480 101 -25 5 -133 27 -240
50 -107 23 -217 45 -245 50 -27 5 -149 29 -270 54 -205 42 -542 105 -1175 220
-274 50 -441 73 -425 58z" />
        <path d="M3421 24268 c-113 -347 -123 -379 -117 -393 4 -10 20 -15 50 -15 25
0 70 -9 100 -21 195 -72 331 -286 382 -598 16 -100 16 -178 1 -476 l-2 -39
130 -27 c72 -16 133 -25 137 -20 36 35 56 568 30 761 -69 493 -274 852 -550
966 -105 43 -101 47 -161 -138z" />
        <path d="M9640 24151 c-59 -19 -130 -63 -195 -121 -71 -62 -95 -101 -95 -150
l0 -27 134 -7 c122 -7 137 -6 172 12 59 30 161 54 241 57 40 1 79 7 86 13 10
9 17 8 25 0 26 -26 10 7 -32 65 -54 76 -77 97 -140 132 -53 29 -148 42 -196
26z" />
        <path d="M5370 23981 c0 -16 1150 -234 1530 -290 353 -52 468 -66 459 -57 -11
12 -218 57 -549 120 -445 85 -1440 241 -1440 227z" />
        <path d="M10510 23873 c0 -5 9 -18 20 -28 11 -10 20 -14 20 -8 0 5 -9 18 -20
28 -11 10 -20 14 -20 8z" />
        <path d="M8848 23843 c6 -2 18 -2 25 0 6 3 1 5 -13 5 -14 0 -19 -2 -12 -5z" />
        <path d="M3261 23738 c-5 -18 -24 -103 -41 -188 -18 -85 -34 -158 -36 -161 -8
-14 -64 -358 -64 -396 l0 -42 68 -21 c37 -11 165 -53 285 -92 119 -39 220 -68
223 -65 13 13 24 90 30 217 18 362 -94 652 -288 749 -45 23 -75 31 -114 31
-50 0 -53 -1 -63 -32z" />
        <path d="M2186 23263 c-13 -43 -37 -285 -48 -482 -22 -395 20 -771 123 -1106
112 -363 307 -648 540 -786 67 -40 177 -84 186 -75 3 3 -8 78 -25 168 -17 90
-34 195 -38 235 -6 67 -8 72 -36 84 -16 7 -57 30 -90 51 -266 172 -454 543
-507 1003 -25 211 -8 577 35 763 7 35 14 65 14 67 0 6 -116 84 -134 91 -8 3
-16 -2 -20 -13z" />
        <path d="M2376 23143 c-2 -10 -10 -97 -17 -193 -32 -484 64 -942 262 -1245 59
-91 153 -189 224 -234 27 -17 52 -31 55 -31 4 0 5 111 2 248 l-4 247 -54 52
c-102 98 -173 239 -210 413 -22 108 -24 348 -4 435 l15 60 2 -45 c19 -326 49
-476 129 -630 34 -65 108 -159 117 -150 3 3 13 100 22 215 10 116 25 298 35
405 17 188 16 220 -11 220 -27 0 -282 111 -398 173 -75 39 -141 73 -148 75 -6
2 -14 -5 -17 -15z" />
        <path d="M12858 22826 c-31 -14 -67 -34 -79 -45 -28 -26 -27 -26 44 -1 75 27
175 27 226 0 37 -18 84 -65 94 -92 2 -7 7 -10 11 -7 11 11 -16 74 -48 108 -61
66 -147 78 -248 37z" />
        <path d="M3100 22823 c0 -10 -5 -52 -10 -93 -11 -78 -44 -413 -60 -609 -13
-144 -12 -145 90 -139 169 10 325 144 448 385 49 97 102 238 102 274 0 12 -10
21 -27 25 -47 11 -160 48 -339 113 -95 33 -179 61 -188 61 -9 0 -16 -8 -16
-17z" />
        <path d="M12964 22751 c9 -16 20 -48 26 -72 27 -107 28 -108 29 -34 1 51 -4
77 -16 95 -32 47 -61 55 -39 11z" />
        <path d="M12762 22619 c-2 -19 -12 -39 -70 -134 -66 -111 -75 -215 -24 -284
43 -60 139 -78 212 -41 41 21 69 50 34 36 -36 -15 -140 -19 -163 -7 -39 21
-61 70 -61 135 0 46 8 78 41 153 27 64 39 106 36 127 -2 17 -5 24 -5 15z" />
        <path d="M3770 22529 c-72 -205 -160 -351 -285 -475 -63 -63 -100 -91 -168
-124 -82 -41 -93 -44 -191 -48 l-103 -4 -7 -110 c-3 -60 -3 -169 0 -243 l7
-133 30 -6 c94 -19 207 0 322 53 244 114 467 401 609 782 40 109 83 254 92
310 7 43 12 40 -121 64 -49 9 -104 18 -121 22 l-31 5 -33 -93z" />
        <path d="M12171 22564 c-61 -54 -182 -241 -126 -194 9 7 48 56 87 109 39 53
75 102 81 109 18 22 0 12 -42 -24z" />
        <path d="M4231 22513 c-55 -200 -78 -274 -117 -373 -184 -463 -486 -789 -809
-870 -57 -15 -108 -20 -178 -19 -54 1 -100 -1 -103 -3 -9 -10 48 -427 62 -450
3 -4 40 -8 82 -8 453 1 942 482 1218 1198 81 209 165 506 148 521 -5 4 -58 13
-119 20 -60 7 -124 15 -142 18 -30 5 -32 3 -42 -34z" />
        <path d="M9794 22532 c12 -20 82 -35 130 -28 68 11 56 26 -21 26 -38 0 -79 3
-92 7 -17 4 -22 3 -17 -5z" />
        <path d="M5095 22520 c-38 -4 -141 -8 -228 -9 -184 -1 -160 18 -206 -166 -115
-463 -337 -913 -600 -1214 -262 -302 -544 -462 -853 -487 -49 -4 -88 -8 -88
-9 0 -2 16 -50 36 -107 40 -115 117 -280 140 -299 20 -16 128 1 241 37 506
165 970 672 1272 1391 90 215 198 560 232 743 6 36 16 70 21 76 5 7 28 15 52
18 41 6 101 37 66 34 -8 -1 -46 -4 -85 -8z" />
        <path d="M10449 22475 c0 -6 0 -29 1 -53 1 -36 -3 -47 -30 -72 -44 -41 -100
-48 -170 -21 -30 12 -57 21 -59 21 -15 0 62 -53 96 -66 36 -14 50 -15 87 -4
24 7 57 25 72 41 24 25 28 38 28 84 0 30 -5 60 -12 67 -7 7 -12 8 -13 3z" />
        <path d="M9670 22407 c0 -19 82 -112 113 -129 11 -5 -7 21 -38 59 -78 92 -75
89 -75 70z" />
        <path d="M5278 22013 c12 -2 32 -2 45 0 12 2 2 4 -23 4 -25 0 -35 -2 -22 -4z" />
        <path d="M5353 22005 c8 -9 165 -30 617 -80 710 -79 1068 -117 1270 -136 466
-41 634 -56 910 -79 135 -11 295 -24 355 -30 61 -5 171 -12 245 -15 l135 -5
-85 15 c-47 7 -125 19 -175 24 -49 6 -146 17 -215 25 -168 20 -620 70 -860 96
-107 11 -233 25 -280 30 -75 8 -371 36 -925 85 -640 57 -1005 83 -992 70z" />
        <path d="M6326 19091 c-20 -39 -36 -78 -36 -88 0 -12 5 -7 15 12 7 17 25 54
39 84 38 81 23 74 -18 -8z" />
        <path d="M9775 11871 c-7 -22 -10 -23 -64 -17 -31 3 -87 9 -126 11 -91 7 -59
-8 62 -29 48 -9 90 -19 95 -24 5 -5 1 -25 -7 -46 -9 -21 -19 -66 -22 -102 -5
-58 -3 -70 25 -127 18 -35 50 -84 72 -109 46 -52 106 -92 116 -77 3 6 0 40 -6
76 -18 93 -1 183 49 260 55 85 92 113 149 113 77 0 570 55 580 65 9 8 -166 6
-279 -4 -57 -6 -151 -12 -208 -15 -95 -5 -103 -4 -108 13 -5 19 -5 19 -24 0
-17 -17 -34 -19 -137 -19 -119 0 -144 6 -154 40 -4 11 -7 8 -13 -9z m233 -76
c2 -2 -13 -24 -33 -51 -68 -88 -105 -185 -105 -273 l0 -44 -21 19 c-12 10 -40
46 -63 79 -39 58 -41 63 -40 135 1 44 8 91 17 113 l16 38 113 -7 c62 -4 114
-8 116 -9z" />
        <path d="M9468 11873 c6 -2 18 -2 25 0 6 3 1 5 -13 5 -14 0 -19 -2 -12 -5z" />
        <path d="M12507 11375 c-4 -121 -9 -237 -13 -257 -9 -56 19 -50 42 10 16 40
19 73 18 214 -1 116 -5 172 -13 182 -7 8 -16 27 -20 43 -5 17 -10 -58 -14
-192z" />
        <path d="M9698 11143 c7 -3 16 -2 19 1 4 3 -2 6 -13 5 -11 0 -14 -3 -6 -6z" />
        <path d="M9845 11066 c66 -35 122 -62 124 -60 9 8 -50 47 -126 84 -131 64
-130 46 2 -24z" />
        <path d="M10523 11066 c-34 -19 -86 -52 -115 -74 -63 -47 -186 -122 -199 -122
-5 0 -34 14 -65 31 -30 17 -57 29 -60 27 -2 -3 25 -31 61 -62 36 -32 65 -65
66 -74 0 -14 2 -14 6 -2 21 56 114 138 248 217 135 80 180 126 58 59z" />
        <path d="M10186 10643 c-17 -169 -19 -246 -5 -241 19 6 28 64 28 191 1 115
-12 144 -23 50z" />
    </g>
</svg>