<?xml version="1.0" encoding="UTF-8"?>
<!DOCTYPE svg PUBLIC "-//W3C//DTD SVG 1.1//EN" "http://www.w3.org/Graphics/SVG/1.1/DTD/svg11.dtd">
<!-- Creator: CorelDRAW 2017 -->
<svg xmlns="http://www.w3.org/2000/svg" xml:space="preserve" width="100" height="100" version="1.1"
    style="shape-rendering:geometricPrecision; text-rendering:geometricPrecision; image-rendering:optimizeQuality; fill-rule:evenodd; clip-rule:evenodd"
    viewBox="0 0 200 200" xmlns:xlink="http://www.w3.org/1999/xlink">
    
    <g id="Слой_x0020_1">
        <metadata id="CorelCorpID_0Corel-Layer" />
        <path stroke="#f2f2f2" fill="#f2f2f2"
            d="M28 84l-9 11 51 -25 0 -64 26 -2 0 192 -25 -14 0 -88 -41 21 0 36 -25 -28 0 -95 25 -12 -1 66m167 -57c-27,-12 -56,-24 -91,-24l0 194 28 -16 -1 -149 -9 -8c17,6 36,10 51,20l0 107c9,-8 18,-17 24,-27l-1 -97zm-100 21l-26 12m0 -8l26 -13m0 -6l-26 13m0 -9l26 -12" />
    </g>
</svg>