<?xml version="1.0" encoding="UTF-8"?>
<!DOCTYPE svg PUBLIC "-//W3C//DTD SVG 1.1//EN" "http://www.w3.org/Graphics/SVG/1.1/DTD/svg11.dtd">
<!-- Creator: CorelDRAW 2017 -->
<svg xmlns="http://www.w3.org/2000/svg" xml:space="preserve" width="100px" height="100px" version="1.1"
    style="shape-rendering:geometricPrecision; text-rendering:geometricPrecision; image-rendering:optimizeQuality; fill-rule:evenodd; clip-rule:evenodd"
    viewBox="0 0 100 100" xmlns:xlink="http://www.w3.org/1999/xlink">

    <g id="Слой_x0020_1">
        <metadata id="CorelCorpID_0Corel-Layer" />
        <g>
            <path stroke="#f2f2f2" fill="#f2f2f2"
                d="M14 32l-4 6 24 -2 0 -32 13 -2 -1 90 -12 -5 0 -39 -21 0 0 28 -12 -7 1 -58 12 -2 0 23zm83 -19c-13,-6 -28,-12 -46,-12l0 90 14 -5 0 -71 -5 -4c9,3 18,5 26,10l0 51c5,-3 6,-1 12,-6l0 -53zm-50 11l-13 6 13 -6zm-13 2l13 -6 -13 6zm13 -9l-13 6 13 -6zm-13 2l13 -6 -13 6z" />
            <path id="1" stroke="#f2f2f2" fill="#f2f2f2"
                d="M14 32l-4 6 24 -2 0 -32 13 -2 -1 90 -12 -5 0 -39 -21 0 0 28 -12 -7 1 -58 12 -2 0 23zm83 -19c-13,-6 -28,-12 -46,-12l0 90 14 -5 0 -71 -5 -4c9,3 18,5 26,10l0 51c5,-3 6,-1 12,-6l0 -53zm-50 11l-13 6m0 -4l13 -6m0 -3l-13 6m0 -4l13 -6" />
        </g>
    </g>
</svg>