<!-- icon666.com - MILLIONS vector ICONS FREE --><svg id="svg28031" viewBox="0 0 16.933333 16.933334"
    xmlns="http://www.w3.org/2000/svg" xmlns:svg="http://www.w3.org/2000/svg">
    <g id="layer1" transform="translate(0 -280.067)">
        <path id="path3196-0-4"
            d="m3.1636285 280.84799c-.2645304.008-.4969298.1476-.6914303.3421l-1.0722849 1.07022a.26516505.26516505 0 1 0 .3746527.37516l.3689694-.36897 2.1642097 2.21847c.2457899.26742.6402043-.11679.379304-.36948l-2.169377-2.22312.3276309-.32763c.1357789-.13578.2451788-.18435.3338274-.18707.088702-.003.1956938.0334.3493347.18707l2.2737631 2.2717c.1068784.10688.1068784.26622 0 .3731l-1.2267989 1.22628c-.3105097.31051-.4143587.67051-.3787881.97307.0356.30256.1842691.53871.3085068.69918.48024.6203 1.2255342 1.70975 2.4510154 2.93522 1.225468 1.22547 2.3154481 1.97129 2.9357373 2.45153.1604803.12424.3966213.27294.6991833.30851.302559.0356.66204-.0683.97255-.37879l.366903-.36587 2.168342 2.21537c.24484.29263.664668-.11857.377238-.36949l-2.172478-2.21898.486794-.48576c.106889-.10688.266213-.10688.373102 0l2.27118 2.27118c.153649.15365.190315.26119.187585.34985-.003.0887-.05179.19805-.187585.33383l-1.070218 1.07022c-.446561.44652-1.033261.45113-1.400432.45113-1.38643 0-3.8526454-.52054-7.4863668-4.15427-3.6337293-3.63372-4.154268-6.09941-4.154268-7.48584 0-.13232-.0007938-.29499.021696-.46922a.26460982.26460982 0 1 0 -.52348073-.0662c-.0274003.21369-.0273897.402-.0273897.53485 0 1.52363.60962913 4.15825 4.31084843 7.85947 3.7012113 3.70122 6.3353238 4.31085 7.8589528 4.31085.368229 0 1.165942.004 1.775601-.60565l1.070221-1.07022c.194498-.1945.333967-.42897.342098-.6935.008-.26452-.12206-.51997-.342098-.74001l-2.271181-2.27169c-.3077-.3077-.815745-.3077-1.123445 0l-1.224214 1.2268c-.218662.21865-.382603.24479-.539503.22634-.156901-.0184-.316495-.10919-.435116-.20102-.6467684-.50074-1.6944734-1.21749-2.8850957-2.40812-1.1906277-1.19063-1.9073813-2.23832-2.4081212-2.8851-.0918-.11861-.1825704-.27873-.2010198-.43563-.018494-.1569.0099-.32033.2284095-.53899l1.2247298-1.22421c.3076999-.30769.3076919-.81575 0-1.12345l-2.271694-2.27117c-.2200301-.22004-.475488-.35023-.7400078-.3421z"
            font-variant-ligatures="normal" font-variant-position="normal" font-variant-caps="normal"
            font-variant-numeric="normal" font-variant-alternates="normal" font-feature-settings="normal"
            text-indent="0" text-align="start" text-decoration-line="none" text-decoration-style="solid"
            text-decoration-color="rgb(0,0,0)" text-transform="none" text-orientation="mixed" white-space="normal"
            shape-padding="0" isolation="auto" mix-blend-mode="normal" solid-color="rgb(0,0,0)" solid-opacity="1"
            vector-effect="none" fill="#000000" style="fill: rgb(211, 211, 211);"></path>
    </g>
</svg>